/vscmnt/brussel_pixiu_data/_data_brussel/112/vsc11236/PredSimResults/SUBJ09mtu3D/worker9.mot
version=1
nRows=6
nColumns=50
inDegrees=yes
endheader
                time	         pelvis_tilt	         pelvis_list	     pelvis_rotation	           pelvis_tx	           pelvis_ty	           pelvis_tz	       hip_flexion_r	     hip_adduction_r	      hip_rotation_r	        knee_angle_r	       ankle_angle_r	         mtp_angle_r	       hip_flexion_l	     hip_adduction_l	      hip_rotation_l	        knee_angle_l	       ankle_angle_l	         mtp_angle_l	    lumbar_extension	      lumbar_bending	     lumbar_rotation	 ercspn_r/activation	 intobl_r/activation	 extobl_r/activation	    abd_r/activation	    add_r/activation	hamstrings_r/activation	bifemsh_r/activation	glut_max_r/activation	iliopsoas_r/activation	rect_fem_r/activation	  vasti_r/activation	gastroc_r/activation	 soleus_r/activation	tib_ant_r/activation	 ercspn_l/activation	 intobl_l/activation	 extobl_l/activation	    abd_l/activation	    add_l/activation	hamstrings_l/activation	bifemsh_l/activation	glut_max_l/activation	iliopsoas_l/activation	rect_fem_l/activation	  vasti_l/activation	gastroc_l/activation	 soleus_l/activation	tib_ant_l/activation	
          0.00000000	         -5.04161776	         -0.83218491	          8.31795014	          0.00000000	          0.98764437	         -0.00197308	         29.74864420	         -1.86711220	         -8.67674074	         -6.29006952	          4.22158184	          0.24737747	        -13.48909385	         -2.41586173	         -3.72494523	        -10.20598062	          3.25143902	         37.40014090	        -13.26578104	         -1.42322918	         -6.74740101	          0.02329812	          0.15441268	          0.03740869	          0.01322511	          0.21364333	          0.06259567	          0.10598879	          0.09545199	          0.10818110	          0.01550209	          0.01000600	          0.01461987	          0.01000516	          0.31189256	          0.02230733	          0.01000608	          0.01000644	          0.02595475	          0.01210067	          0.02010376	          0.16800743	          0.01204188	          0.01032246	          0.01000980	          0.01000712	          0.31235821	          0.20254377	          0.01210156	
          0.01260852	         -5.07056971	         -0.98003746	          8.35537530	          0.02043038	          0.98536904	         -0.00126060	         29.54299712	         -1.67465812	         -8.87101287	         -7.91983299	          3.76193339	          0.21148893	        -14.07258353	         -2.80703133	         -4.11845452	        -11.09301305	          2.09842148	         38.97865443	        -12.71768299	         -0.95643027	         -6.94629117	          0.01925671	          0.12759923	          0.03091288	          0.08130872	          0.17668148	          0.06507931	          0.08758569	          0.13973051	          0.08939553	          0.01281074	          0.01000447	          0.01211070	          0.01210211	          0.35541613	          0.01844034	          0.01000153	          0.01000533	          0.02144778	          0.01001059	          0.01661683	          0.13883973	          0.01000288	          0.01005905	          0.01000613	          0.01000485	          0.27861932	          0.17991341	          0.01000073	
          0.02521704	         -5.08143143	         -1.13583885	          8.35855416	          0.04102212	          0.98344072	         -0.00046813	         29.27672074	         -1.46713989	         -9.04532763	         -9.46582509	          3.11811604	          0.20436074	        -14.41680061	         -3.22684152	         -4.53042154	        -12.43703972	          0.83968824	         40.45396776	        -12.16813954	         -0.47948529	         -7.11350154	          0.01671654	          0.10544176	          0.02554506	          0.13475118	          0.20060262	          0.05379032	          0.07237789	          0.18332192	          0.07387210	          0.01058720	          0.01000864	          0.01000899	          0.01000136	          0.40446713	          0.02769567	          0.01000115	          0.01000276	          0.01772344	          0.01000623	          0.01373830	          0.11473386	          0.01000153	          0.03985561	          0.01000885	          0.01000677	          0.23023866	          0.14867886	          0.01000058	
          0.03782555	         -5.07595965	         -1.29702318	          8.32986474	          0.06140800	          0.98208418	          0.00041586	         29.10465259	         -1.25281448	         -9.19164086	        -11.18171588	          2.50916630	          0.16769260	        -14.40349497	         -3.68102145	         -4.95092401	        -14.40746063	         -0.48001305	         41.63608120	        -11.65975065	          0.00554856	         -7.24804104	          0.03127184	          0.08713191	          0.02110940	          0.17960205	          0.23563514	          0.05380406	          0.05981075	          0.19146980	          0.06104431	          0.01000536	          0.10467099	          0.01000928	          0.01000561	          0.42699096	          0.08443117	          0.01000516	          0.01000268	          0.01464584	          0.05784137	          0.02694243	          0.09481405	          0.01000213	          0.03311045	          0.01000529	          0.01000465	          0.19025787	          0.12286106	          0.01000109	
          0.05043407	         -5.05690369	         -1.46011348	          8.27568828	          0.08138630	          0.98147211	          0.00136880	         28.99979729	         -1.02949054	         -9.28355509	        -13.05717961	          2.25952482	          0.12335667	        -13.95847598	         -4.17215584	         -5.40235990	        -17.09868627	         -1.82905963	         42.25440960	        -11.21023257	          0.49533570	         -7.35305442	          0.02592583	          0.07200159	          0.01744406	          0.20274667	          0.24877655	          0.04993778	          0.04942588	          0.20395252	          0.05044408	          0.01000515	          0.20594176	          0.01000958	          0.01000575	          0.42480075	          0.09733260	          0.01000381	          0.01000227	          0.01210268	          0.14787743	          0.02884562	          0.07835410	          0.01000078	          0.03356541	          0.01000273	          0.01000148	          0.15721961	          0.10152635	          0.01000135	
          0.06304259	         -5.02821951	         -1.60915263	          8.19245767	          0.10081595	          0.98174911	          0.00235460	         28.85632741	         -0.79824049	         -9.33082144	        -14.89306018	          2.41459357	          0.08742976	        -13.03346942	         -4.69338578	         -5.92352338	        -20.57541410	         -3.14195529	         41.90854870	        -10.83290368	          0.97422984	         -7.42372177	          0.02144128	          0.05949867	          0.01441537	          0.20923314	          0.27871716	          0.05165919	          0.04084446	          0.19551614	          0.04168458	          0.01000415	          0.23559881	          0.01000721	          0.01000361	          0.38994316	          0.09427209	          0.01000501	          0.01000253	          0.01000126	          0.20231295	          0.03145057	          0.06475531	          0.01000068	          0.02775022	          0.01000236	          0.01000093	          0.12991843	          0.08389636	          0.01000081	
